<?xml version="1.0" encoding="UTF-8"?>
<svg id="Layer_1" data-name="Layer 1" xmlns="http://www.w3.org/2000/svg" width="34.504mm" height="30.529mm" version="1.1" viewBox="0 0 97.807 86.539">
  <defs>
    <style>
      .cls-1 {
        fill: #fff;
        stroke-width: 0px;
      }
    </style>
  </defs>
  <path class="cls-1" d="M86.864,85.978H10.942c-2.486,0-4.508-2.022-4.508-4.508v-7.627c0-4.87,2.888-9.265,7.358-11.197l14.294-6.179c1.022-.44,2.209.03,2.65,1.051.442,1.022-.029,2.208-1.051,2.65l-14.294,6.179c-2.993,1.293-4.926,4.235-4.926,7.496v7.627c0,.263.214.477.476.477h75.922c.263,0,.476-.214.476-.477v-7.061c0-3.493-2.085-6.615-5.311-7.955l-19.764-8.205c-1.028-.427-1.516-1.607-1.089-2.635.427-1.029,1.607-1.517,2.635-1.089l19.764,8.205c4.737,1.967,7.797,6.551,7.797,11.679v7.061c0,2.486-2.022,4.508-4.508,4.508Z"/>
  <path class="cls-1" d="M36.296,74.405h-14.818c-1.113,0-2.016-.903-2.016-2.016s.903-2.016,2.016-2.016h14.818c1.113,0,2.016.903,2.016,2.016s-.903,2.016-2.016,2.016Z"/>
  <g>
    <g>
      <path class="cls-1" d="M48.969,54.806c-2.995,0-7.01-1.61-10.228-4.102-2.962-2.099-5.198-5.182-6.23-8.63-.04-.089-.059-.142-.085-.236l-.514-1.806c-1.835.312-3.549-.497-4.326-2.056-.458-.981-1.211-3.576-1.418-4.613-.181-.884-.498-2.55-.566-3.676-.003-.041-.004-.082-.004-.122,0-.034-.003-.141-.007-.194-.007-.122-.005-.275.01-.397l-.005-.027c.002-.093.01-.185.025-.277.264-1.666,1.607-2.964,3.34-3.228-.365-2.745-.705-5.349-.78-6.001-.075-.599-.113-1.196-.113-1.807,0-6.458,3.987-12.357,10.163-15.042,2.632-1.299,6.447-2.015,10.752-2.015,2.083,0,4.238.009,6.159.016l.38.002c1.113.004,2.012.911,2.008,2.023-.004,1.11-.906,2.008-2.015,2.008h-.008l-.38-.002c-1.917-.007-4.066-.016-6.144-.016-3.666,0-6.947.589-9.001,1.615-.034.017-.068.033-.103.048-4.725,2.037-7.779,6.497-7.779,11.363,0,.448.026.869.084,1.326.079.685.434,3.398.807,6.201.215,1.621-.627,3.19-2.095,3.905-.388.189-.822.312-1.27.361,0,.016,0,.032.001.047.043.64.225,1.789.492,3.089.162.812.747,2.784,1.031,3.503.028,0,.066-.004.111-.015,1.947-.444,3.914.724,4.467,2.661l.543,1.907c.038.098.073.198.103.299.775,2.589,2.469,4.916,4.768,6.547,2.546,1.969,5.736,3.309,7.827,3.309,2.22,0,5.1-1.214,7.516-3.167.032-.026.065-.051.099-.075,2.358-1.677,4.083-4.027,4.858-6.616.031-.104.066-.204.104-.301l.541-1.901c.562-1.979,2.566-3.14,4.56-2.641.007,0,.012.003.016.005.121-.313.408-1.21.508-1.523.289-.974.466-1.672.512-1.924.276-1.362.458-2.494.507-3.155,0-.016,0-.033-.001-.05-.437-.048-.861-.166-1.241-.347-1.487-.708-2.341-2.284-2.124-3.919.374-2.806.729-5.523.804-6.169.06-.48.087-.907.087-1.358,0-3.049-2.845-5.905-5.522-7.045-1.024-.437-1.501-1.621-1.065-2.645s1.621-1.499,2.644-1.065c3.841,1.635,7.975,5.699,7.975,10.755,0,.622-.037,1.207-.116,1.841-.072.62-.412,3.223-.777,5.967,1.793.273,3.171,1.657,3.353,3.365.007.07.011.141.011.213-.001.161-.003.321,0,.409.005.087.005.174,0,.261-.071,1.073-.352,2.61-.576,3.71-.115.624-.452,1.792-.592,2.263-.004.015-.034.109-.039.122-.348,1.088-.57,1.748-.748,2.122-.789,1.604-2.591,2.462-4.36,2.13l-.511,1.793c-.025.089-.057.177-.094.262-1.018,3.407-3.266,6.498-6.326,8.691-3.138,2.52-6.873,4.023-10.003,4.023ZM32.143,39.987s-.003,0-.004,0c.001,0,.003,0,.004,0Z"/>
      <path class="cls-1" d="M57.76,20.653c-.83,0-1.607-.516-1.9-1.343-.144-.407-.532-.681-.966-.681h-9.118c-3.417,0-6.482-2.162-7.628-5.382-.373-1.049.175-2.201,1.224-2.575,1.049-.371,2.202.175,2.575,1.224.575,1.615,2.114,2.701,3.829,2.701h9.118c2.137,0,4.052,1.352,4.766,3.365.372,1.049-.177,2.201-1.226,2.574-.223.079-.45.116-.674.116Z"/>
    </g>
    <path class="cls-1" d="M60.61,42.878h-7.039c-1.113,0-2.016-.903-2.016-2.016s.903-2.016,2.016-2.016h7.039c.77,0,1.477-.388,1.891-1.038.598-.939,1.844-1.215,2.783-.617.939.598,1.215,1.845.617,2.784-1.158,1.818-3.136,2.903-5.291,2.903Z"/>
    <path class="cls-1" d="M48.903,46.719c-3.23,0-5.857-2.628-5.857-5.857s2.628-5.857,5.857-5.857,5.857,2.628,5.857,5.857-2.627,5.857-5.857,5.857ZM48.903,39.037c-1.007,0-1.826.819-1.826,1.826s.819,1.826,1.826,1.826,1.825-.819,1.825-1.826-.819-1.826-1.825-1.826Z"/>
  </g>
</svg>