<?xml version="1.0" encoding="UTF-8"?>
<svg id="Layer_1" data-name="Layer 1" xmlns="http://www.w3.org/2000/svg" width="34.504mm" height="30.529mm" version="1.1" xmlns:xlink="http://www.w3.org/1999/xlink" viewBox="0 0 97.807 86.539">
  <defs>
    <style>
      .cls-1 {
        fill-rule: evenodd;
      }

      .cls-1, .cls-2, .cls-3, .cls-4, .cls-5 {
        stroke-width: 0px;
      }

      .cls-1, .cls-5 {
        fill: #fff;
      }

      .cls-2 {
        fill: #000;
      }

      .cls-6 {
        isolation: isolate;
      }

      .cls-3 {
        fill: none;
      }

      .cls-7 {
        clip-path: url(#clippath-1);
      }

      .cls-4 {
        fill: #3f3f3f;
      }

      .cls-8 {
        clip-path: url(#clippath);
      }

      .cls-9 {
        mask: url(#mask);
      }
    </style>
    <clipPath id="clippath">
      <rect class="cls-3" x="8.203" y="0" width="314.03" height="87.222"/>
    </clipPath>
    <clipPath id="clippath-1">
      <rect class="cls-3" x="8.203" y="-.052" width="314.306" height="87.275"/>
    </clipPath>
    <mask id="mask" x="-59.56" y="-415.121" width="453.072" height="678.606" maskUnits="userSpaceOnUse">
      <g class="cls-8">
        <rect class="cls-2" x="8.204" y="-.051" width="314.305" height="87.275"/>
        <g class="cls-6">
          <g class="cls-7">
            <path class="cls-1" d="M-49.578-415.121h433.112c5.509,0,9.978,4.469,9.978,9.981V253.507c0,5.509-4.469,9.978-9.978,9.978H-49.578c-5.512,0-9.981-4.469-9.981-9.978V-405.14c0-5.512,4.469-9.981,9.981-9.981"/>
          </g>
        </g>
      </g>
    </mask>
  </defs>
  <g class="cls-9">
    <path class="cls-5" d="M47.835.157c.704-.21,1.457-.21,2.164,0l21.803,6.456c1.223.366,2.185,1.316,2.56,2.536l2.883,9.373c.384,1.25.102,2.611-.749,3.603l-4.064,4.742c-.231,2.56-1.529,4.88-3.618,6.843l-.042-.318c.174,1.253.264,2.53.264,3.813,0,5.054-1.361,9.873-3.852,13.875-.614.983-1.906,1.283-2.889.671-.98-.611-1.28-1.903-.668-2.886,2.074-3.33,3.216-7.386,3.216-11.66,0-.225-.003-.447-.009-.671-4.214,2.281-9.822,3.627-15.916,3.627s-11.702-1.346-15.919-3.627c-.003.225-.009.447-.009.671,0,10.767,7.221,19.36,15.928,19.36,2.695,0,5.293-.815,7.616-2.362.59-.39,1.301-.444,1.915-.21.183.009.369.042.552.099l.147.054,21.851,8.887c5.129,2.158,8.501,7.128,8.629,12.667l.003.336v6.654c0,2.038-1.601,3.702-3.615,3.807l-.195.006-73.801.036c-2.041.003-3.708-1.598-3.813-3.615l-.003-.195v-6.663c0-5.668,3.396-10.791,8.62-12.997l12.733-5.377c1.067-.45,2.296.051,2.746,1.118.453,1.064-.048,2.293-1.115,2.746l-12.733,5.374c-3.582,1.511-5.941,4.973-6.055,8.842l-.006.297v6.28l73.046-.039v-6.273c0-3.891-2.272-7.413-5.773-9.013l-.273-.117-21.368-8.689c-2.791,1.658-5.893,2.542-9.109,2.542-11.198,0-20.118-10.617-20.118-23.553,0-1.175.075-2.344.222-3.495-2.089-1.963-3.387-4.283-3.618-6.84l-4.064-4.745c-.851-.992-1.136-2.353-.749-3.603l2.883-9.373c.375-1.22,1.337-2.17,2.56-2.536L47.835.157ZM36.904,71.156c1.157,0,2.095.938,2.095,2.095,0,1.106-.86,2.014-1.948,2.089l-.147.006h-13.731c-1.16,0-2.098-.938-2.098-2.095,0-1.106.86-2.014,1.948-2.089l.15-.006h13.731ZM67.57,28.62l-11.813,1.891c-4.532.725-9.148.725-13.68,0l-11.813-1.891c2.254,4.064,9.649,7.35,18.653,7.35s16.399-3.285,18.653-7.35M48.917,4.207l-21.497,6.372-2.764,8.977,3.897,4.544,14.187,2.272c3.852.614,7.772.653,11.633.108l.722-.108,14.187-2.272,3.897-4.544-2.764-8.977-21.497-6.372ZM48.917,8.394l7.739,2.581-.701,2.344c-1.966,6.411-3.987,9.679-7.038,9.679-3.114,0-5.155-3.402-7.158-10.074l-.584-1.948,7.742-2.581ZM48.917,12.812l-2.521.839.186.537c.489,1.364.968,2.458,1.433,3.276l.126.213c.318.531.602.89.83,1.079l-.054-.048.033-.03c.15-.147.324-.357.513-.635l.114-.174.117-.192c.546-.905,1.112-2.2,1.694-3.867l.051-.159-2.521-.839Z"/>
  </g>
  <g>
    <path class="cls-4" d="M-93.045,51.793c-8.727,0-15.827-7.1-15.827-15.827s7.1-15.824,15.827-15.824,15.827,7.099,15.827,15.824-7.1,15.827-15.827,15.827ZM-93.045,25.409c-5.823,0-10.56,4.735-10.56,10.557s4.737,10.56,10.56,10.56,10.56-4.737,10.56-10.56-4.737-10.557-10.56-10.557Z"/>
    <path class="cls-4" d="M-35.489,70.578c-.434,0-.874-.107-1.28-.333-1.27-.709-1.726-2.312-1.017-3.582,5.218-9.359,7.976-19.973,7.976-30.697s-2.766-21.313-7.999-30.686c-.709-1.27-.254-2.874,1.014-3.583,1.271-.71,2.874-.255,3.583,1.015,5.67,10.156,8.667,21.654,8.667,33.253s-2.989,23.12-8.644,33.26c-.481.864-1.378,1.351-2.302,1.351Z"/>
    <path class="cls-4" d="M-52.956,64.812c-.519,0-1.044-.153-1.503-.472-1.192-.832-1.486-2.473-.655-3.666,5.088-7.306,7.777-15.848,7.777-24.706s-2.7-17.376-7.806-24.7c-.832-1.192-.539-2.834.654-3.666,1.194-.83,2.834-.538,3.666.654,5.726,8.21,8.752,17.793,8.752,27.712s-3.016,19.523-8.722,27.715c-.512.735-1.331,1.129-2.163,1.129Z"/>
    <path class="cls-4" d="M-71.777,58.651c-.763,0-1.52-.33-2.04-.967-.92-1.126-.753-2.785.373-3.706,5.458-4.459,8.588-11.024,8.588-18.013s-3.119-13.568-8.557-18.027c-1.124-.923-1.288-2.582-.366-3.707.923-1.123,2.582-1.287,3.706-.366,6.662,5.465,10.483,13.52,10.483,22.1s-3.835,16.627-10.521,22.091c-.489.4-1.079.594-1.665.594Z"/>
  </g>
</svg>