<?xml version="1.0" encoding="UTF-8"?>
<svg version="1.1" xmlns="http://www.w3.org/2000/svg" width="182" height="182">
<path d="M0 0 C4.64448995 1.81740911 6.59202756 4.70928401 9 9 C9.33663684 11.75064877 9.47224142 14.07348366 9.390625 16.8046875 C9.38496521 17.5286673 9.37930542 18.25264709 9.37347412 18.99856567 C9.35123667 21.29140788 9.30106987 23.58263716 9.25 25.875 C9.22991841 27.43747729 9.21167055 28.99997929 9.1953125 30.5625 C9.15141416 34.3756133 9.08247971 38.18753402 9 42 C10.19882813 42.23847656 11.39765625 42.47695312 12.6328125 42.72265625 C19.18666376 44.18206261 25.5099321 46.31923278 31.875 48.4375 C33.70804688 49.03014648 33.70804688 49.03014648 35.578125 49.63476562 C36.74601562 50.02212891 37.91390625 50.40949219 39.1171875 50.80859375 C40.70442627 51.33151001 40.70442627 51.33151001 42.32373047 51.86499023 C44.93603927 52.97287416 46.28523857 53.77473441 48 56 C49.69686533 61.09059599 49.34412668 66.48371101 49.4050293 71.81176758 C49.42643417 73.21306263 49.46032544 74.61423055 49.50756836 76.01489258 C49.82174826 85.43693535 49.31216036 94.37068434 43 102 C40.41967773 102.94116211 40.41967773 102.94116211 38 103 C37.01 102.01 37.01 102.01 36 101 C36.21713056 97.23640367 36.7216845 94.51582988 38.51879883 91.18505859 C40.16731167 87.64022614 40.42250864 85.1786232 40.51171875 81.2890625 C40.54716797 80.04511719 40.58261719 78.80117187 40.61914062 77.51953125 C40.64169922 76.23433594 40.66425781 74.94914062 40.6875 73.625 C40.72166016 72.31660156 40.75582031 71.00820312 40.79101562 69.66015625 C40.87327754 66.44018975 40.94250263 63.22048821 41 60 C39.8346875 59.77441406 38.669375 59.54882812 37.46875 59.31640625 C31.02359875 57.88316827 24.80647561 55.73995212 18.55859375 53.6315918 C16.47845706 52.93023641 14.39569745 52.23712665 12.3125 51.54492188 C2.13973077 48.13973077 2.13973077 48.13973077 1 47 C0.90172737 44.37063585 0.86287037 41.76273378 0.859375 39.1328125 C0.84104807 37.50910054 0.82147787 35.88540223 0.80078125 34.26171875 C0.7717827 31.69166098 0.74999952 29.12247821 0.74951172 26.55224609 C0.74618333 24.07830432 0.71167272 21.60640132 0.671875 19.1328125 C0.6789447 18.36397736 0.6860144 17.59514221 0.69329834 16.80300903 C0.6927657 14.37201862 0.6927657 14.37201862 0 11 C-2.14184838 8.7029078 -2.14184838 8.7029078 -5 8 C-7.1501992 8.88974267 -7.1501992 8.88974267 -9 10 C-9.00808685 11.12086502 -9.01617371 12.24173004 -9.02450562 13.39656067 C-9.10190904 23.94720429 -9.18963355 34.49771803 -9.28752708 45.04819202 C-9.3375246 50.47261295 -9.38385434 55.89701406 -9.421875 61.3215332 C-9.45868413 66.55411951 -9.50503215 71.78654149 -9.55806351 77.01898766 C-9.57663073 79.01768811 -9.59173003 81.01642382 -9.60334396 83.01517677 C-9.62016659 85.80952495 -9.64919187 88.60349486 -9.68115234 91.39770508 C-9.68331253 92.22848572 -9.68547272 93.05926636 -9.68769836 93.91522217 C-9.74447133 97.78738432 -9.80294627 99.70441941 -12 103 C-13.98 102.67 -15.96 102.34 -18 102 C-18.1391308 89.86496545 -18.24568792 77.7301212 -18.31087303 65.59445095 C-18.34216172 59.95908334 -18.38459064 54.32426214 -18.45263672 48.68920898 C-18.51791548 43.24916795 -18.55372457 37.80965187 -18.56926346 32.36924934 C-18.5803344 30.29559123 -18.60195391 28.22196127 -18.63438034 26.14852715 C-18.67805655 23.23958546 -18.6839294 20.33280176 -18.68115234 17.42358398 C-18.702724 16.56978149 -18.72429565 15.715979 -18.746521 14.83630371 C-18.6887002 9.22419135 -17.36192268 6.36332682 -13.48386574 2.29760838 C-9.62869249 -1.07365694 -4.84905416 -0.41366339 0 0 Z " fill="#FFFFFF" transform="translate(91,57)"/>
<path d="M0 0 C4.92946257 3.69709693 4.92946257 3.69709693 5.90234375 6.703125 C6.67290513 12.74094844 5.94238981 15.79757836 2.25 20.6875 C-1.892305 23.26454988 -6.00176622 23.51720867 -10.75 22.6875 C-13.82061968 20.97381391 -16.15450726 18.87848548 -17.75 15.6875 C-18.27137294 10.85839 -18.48402673 6.94583154 -16 2.6875 C-11.13010388 -1.64129655 -6.18994656 -2.95429268 0 0 Z M-7.75 6.6875 C-8.41 7.3475 -9.07 8.0075 -9.75 8.6875 C-9.42958603 11.29030568 -9.42958603 11.29030568 -8.75 13.6875 C-6.35280568 14.36708603 -6.35280568 14.36708603 -3.75 14.6875 C-3.09 14.0275 -2.43 13.3675 -1.75 12.6875 C-2.07041397 10.08469432 -2.07041397 10.08469432 -2.75 7.6875 C-5.14719432 7.00791397 -5.14719432 7.00791397 -7.75 6.6875 Z " fill="#FFFFFF" transform="translate(60.75,91.3125)"/>
<path d="M0 0 C3.17781029 2.58197086 5.68987052 4.78478945 6.2734375 8.953125 C6.46329043 13.24672199 6.4342668 16.09582964 3.625 19.5 C-0.21782612 23.1598344 -2.53926604 23.34742089 -7.67578125 23.28125 C-11.28951498 22.84395785 -13.33365082 21.40621755 -16 19 C-18.49134854 15.20881743 -18.21515583 11.5071506 -17.61328125 7.15625 C-16.64898512 3.76585851 -14.74727397 2.09316112 -12 0 C-7.82507137 -1.39164288 -4.24477353 -1.10959869 0 0 Z M-8.75 8.25 C-10.24915434 9.93420967 -10.24915434 9.93420967 -9.75 12.125 C-9.15045529 13.98085115 -9.15045529 13.98085115 -8 15 C-5.5 15.16666667 -5.5 15.16666667 -3 15 C-1.72996677 13.94689723 -1.72996677 13.94689723 -1.8125 11.5625 C-1.73160017 8.83265325 -1.73160017 8.83265325 -4 7 C-6.95156348 6.7093809 -6.95156348 6.7093809 -8.75 8.25 Z " fill="#FFFFFF" transform="translate(92,28)"/>
<path d="M0 0 C2.65055833 3.97583749 3.28460999 7.25370982 3 12 C1.80619986 15.58140041 0.68985619 17.39130336 -2.125 19.875 C-6.16735029 21.45678925 -9.72201359 21.82702725 -14 21 C-17.06765423 19.27803193 -19.40321354 17.19357293 -21 14 C-21.57322775 9.30141192 -21.41740893 5.85027745 -19.3125 1.5625 C-13.94413508 -4.3862287 -6.50118287 -4.33412191 0 0 Z M-11 5 C-13.26839983 6.83265325 -13.26839983 6.83265325 -13.1875 9.5625 C-13.27003323 11.94689723 -13.27003323 11.94689723 -12 13 C-9.54190002 13.2500773 -9.54190002 13.2500773 -7 13 C-6.34 12.34 -5.68 11.68 -5 11 C-5.32041397 8.39719432 -5.32041397 8.39719432 -6 6 C-8.39719432 5.32041397 -8.39719432 5.32041397 -11 5 Z " fill="#FFFFFF" transform="translate(64,30)"/>
<path d="M0 0 C3.21725013 1.8097032 4.54322539 3.17345547 6.3125 6.375 C7.53226902 11.03229989 7.59373187 13.8353721 5.375 18.1875 C2.67940663 21.37965004 0.96918621 22.70238143 -3 24 C-7.68439592 24.30370347 -10.29235468 23.58719506 -13.9375 20.5625 C-17.05959227 16.68353687 -17.39083049 14.2037258 -17.359375 9.328125 C-16.75455722 5.40995764 -14.83123243 3.69641184 -12 1 C-8.29512168 -0.85243916 -4.04385812 -0.4585162 0 0 Z M-9 9 C-9.2500773 11.45809998 -9.2500773 11.45809998 -9 14 C-8.34 14.66 -7.68 15.32 -7 16 C-4.39719432 15.67958603 -4.39719432 15.67958603 -2 15 C-1.32041397 12.60280568 -1.32041397 12.60280568 -1 10 C-2.83265325 7.73160017 -2.83265325 7.73160017 -5.5625 7.8125 C-7.94689723 7.72996677 -7.94689723 7.72996677 -9 9 Z " fill="#FFFFFF" transform="translate(60,59)"/>
<path d="M0 0 C3.46478519 1.70089455 5.36368391 3.00402699 7.4375 6.25 C8.4797463 11.34542637 7.96268839 15.4184405 5.25 19.875 C2.30227292 22.65896446 0.18524821 23.92449346 -3.921875 24.06640625 C-8.04496615 23.8106506 -9.69274859 23.26149056 -12.9375 20.5 C-13.618125 19.675 -14.29875 18.85 -15 18 C-15.33 17.67 -15.66 17.34 -16 17 C-16.53798008 12.91903684 -16.93436984 8.75020022 -14.953125 5.0390625 C-10.53177982 -0.29255963 -6.60664633 -0.79945972 0 0 Z M-7 8 C-7.66 9.32 -8.32 10.64 -9 12 C-8.01 13.32 -7.02 14.64 -6 16 C-3.13275314 15.42655063 -2.1385485 15.1385485 0 13 C-0.40528901 10.21762345 -0.40528901 10.21762345 -2 8 C-3.66617115 7.95936168 -5.33388095 7.957279 -7 8 Z " fill="#FFFFFF" transform="translate(122,59)"/>
<path d="M0 0 C3.19215004 2.69559337 4.51488143 4.40581379 5.8125 8.375 C6.11620347 13.05939592 5.39969506 15.66735468 2.375 19.3125 C-1.50396313 22.43459227 -3.9837742 22.76583049 -8.859375 22.734375 C-12.77754236 22.12955722 -14.49108816 20.20623243 -17.1875 17.375 C-19.03993916 13.67012168 -18.6460162 9.41885812 -18.1875 5.375 C-16.3777968 2.15774987 -15.01404453 0.83177461 -11.8125 -0.9375 C-7.15520011 -2.15726902 -4.3521279 -2.21873187 0 0 Z M-8.1875 6.375 C-9.6725 8.85 -9.6725 8.85 -11.1875 11.375 C-10.1975 12.86 -10.1975 12.86 -9.1875 14.375 C-6.6875 14.79166667 -6.6875 14.79166667 -4.1875 14.375 C-3.5275 13.715 -2.8675 13.055 -2.1875 12.375 C-2.50791397 9.77219432 -2.50791397 9.77219432 -3.1875 7.375 C-4.8375 7.045 -6.4875 6.715 -8.1875 6.375 Z " fill="#FFFFFF" transform="translate(124.1875,28.625)"/>
</svg>
