<?xml version="1.0" encoding="UTF-8"?>
<svg id="Layer_1" data-name="Layer 1" xmlns="http://www.w3.org/2000/svg" width="34.504mm" height="30.529mm" version="1.1" viewBox="0 0 97.807 86.539">
  <defs>
    <style>
      .cls-1 {
        fill: #fff;
        stroke-width: 0px;
      }
    </style>
  </defs>
  <path class="cls-1" d="M22.565,60.561c-8.727,0-15.827-7.1-15.827-15.827s7.1-15.824,15.827-15.824,15.827,7.099,15.827,15.824-7.1,15.827-15.827,15.827ZM22.565,34.177c-5.823,0-10.56,4.735-10.56,10.557s4.737,10.56,10.56,10.56,10.56-4.737,10.56-10.56-4.737-10.557-10.56-10.557Z"/>
  <path class="cls-1" d="M80.122,79.346c-.434,0-.874-.107-1.28-.333-1.27-.709-1.726-2.312-1.017-3.582,5.218-9.359,7.976-19.973,7.976-30.697s-2.766-21.313-7.999-30.686c-.709-1.27-.254-2.874,1.014-3.583,1.271-.71,2.874-.255,3.583,1.015,5.67,10.156,8.667,21.654,8.667,33.253s-2.989,23.12-8.644,33.26c-.481.864-1.378,1.351-2.302,1.351Z"/>
  <path class="cls-1" d="M62.655,73.581c-.519,0-1.044-.153-1.503-.472-1.192-.832-1.486-2.473-.655-3.666,5.088-7.306,7.777-15.848,7.777-24.706s-2.7-17.376-7.806-24.7c-.832-1.192-.539-2.834.654-3.666,1.194-.83,2.834-.538,3.666.654,5.726,8.21,8.752,17.793,8.752,27.712s-3.016,19.523-8.722,27.715c-.512.735-1.331,1.129-2.163,1.129Z"/>
  <path class="cls-1" d="M43.833,67.42c-.763,0-1.52-.33-2.04-.967-.92-1.126-.753-2.785.373-3.706,5.458-4.459,8.588-11.024,8.588-18.013s-3.119-13.568-8.557-18.027c-1.124-.923-1.288-2.582-.366-3.707.923-1.123,2.582-1.287,3.706-.366,6.662,5.465,10.483,13.52,10.483,22.1s-3.835,16.627-10.521,22.091c-.489.4-1.079.594-1.665.594Z"/>
</svg>