<?xml version="1.0" encoding="UTF-8"?>
<svg version="1.1" xmlns="http://www.w3.org/2000/svg" width="145" height="142">
<path d="M0 0 C3.98020328 1.52322945 6.87934744 3.6800424 10.046875 6.44921875 C11.34589882 7.53881426 12.648148 8.62457281 13.953125 9.70703125 C14.64535156 10.28227539 15.33757812 10.85751953 16.05078125 11.45019531 C20.90320973 15.36378437 25.98971171 18.97300695 31.03808594 22.62768555 C31.80926758 23.18883057 32.58044922 23.74997559 33.375 24.328125 C34.05981445 24.82256104 34.74462891 25.31699707 35.45019531 25.82641602 C37.23512126 27.21372163 38.83173429 28.53800676 40.296875 30.26171875 C39.984375 32.44921875 39.984375 32.44921875 39.296875 34.26171875 C37.60546875 34.9765625 37.60546875 34.9765625 35.296875 35.26171875 C33.01953125 33.953125 33.01953125 33.953125 30.359375 31.82421875 C29.30750061 31.00103503 28.25539763 30.17814334 27.203125 29.35546875 C26.60242188 28.87851563 26.00171875 28.4015625 25.3828125 27.91015625 C21.07462219 24.50555641 16.71446651 21.16843409 12.359375 17.82421875 C11.44744385 17.11402588 10.5355127 16.40383301 9.59594727 15.67211914 C8.72510498 15.00172607 7.8542627 14.33133301 6.95703125 13.640625 C6.17980713 13.03806885 5.40258301 12.4355127 4.60180664 11.81469727 C2.19192082 10.19100447 0.09403947 9.05956096 -2.703125 8.26171875 C-5.05497513 9.66390582 -6.80576744 10.96636654 -8.828125 12.76171875 C-12.97814822 16.41880548 -16.81883839 19.43804742 -21.84375 21.81640625 C-27.58446555 24.77059923 -32.48747318 27.476036 -35.703125 33.26171875 C-38.63196734 45.02441425 -36.74848072 58.36544844 -35.703125 70.26171875 C-28.773125 70.59171875 -21.843125 70.92171875 -14.703125 71.26171875 C-14.78186939 65.56291326 -14.78186939 65.56291326 -14.88330078 59.86450195 C-14.93841387 51.93799572 -14.93841387 51.93799572 -12.703125 48.26171875 C-9.30279035 45.62945969 -5.43096514 45.89439792 -1.265625 45.82421875 C0.68150391 45.76427734 0.68150391 45.76427734 2.66796875 45.703125 C6.296875 46.26171875 6.296875 46.26171875 9.21875 48.17578125 C12.10809376 52.46634811 12.07361624 56.01327676 12.109375 61.07421875 C12.17125 64.10609375 12.233125 67.13796875 12.296875 70.26171875 C19.226875 70.59171875 26.156875 70.92171875 33.296875 71.26171875 C33.27367188 69.62460938 33.25046875 67.9875 33.2265625 66.30078125 C33.20780797 64.16276496 33.18960743 62.02474376 33.171875 59.88671875 C33.15511719 58.80648437 33.13835937 57.72625 33.12109375 56.61328125 C33.11464844 55.58203125 33.10820313 54.55078125 33.1015625 53.48828125 C33.09108887 52.53518066 33.08061523 51.58208008 33.06982422 50.60009766 C33.296875 48.26171875 33.296875 48.26171875 35.296875 46.26171875 C38.83258929 46.79743304 38.83258929 46.79743304 40.296875 48.26171875 C40.60609712 52.17028639 40.57535339 56.09242944 40.609375 60.01171875 C40.65288086 61.65914062 40.65288086 61.65914062 40.69726562 63.33984375 C40.76123997 71.44982264 40.76123997 71.44982264 38.46484375 75.46484375 C33.79138881 79.33833794 28.18752947 78.48203713 22.421875 78.51171875 C21.42800781 78.53234375 20.43414062 78.55296875 19.41015625 78.57421875 C10.35383285 78.62271312 10.35383285 78.62271312 6.296875 75.26171875 C4.71283976 73.67768351 5.07712565 71.98455495 4.98046875 69.7890625 C4.93857422 68.88994141 4.89667969 67.99082031 4.85351562 67.06445312 C4.81419922 66.11892578 4.77488281 65.17339844 4.734375 64.19921875 C4.69119141 63.24982422 4.64800781 62.30042969 4.60351562 61.32226562 C4.49708368 58.96893699 4.39644346 56.61534776 4.296875 54.26171875 C0.336875 53.93171875 -3.623125 53.60171875 -7.703125 53.26171875 C-7.65671875 54.6590625 -7.6103125 56.05640625 -7.5625 57.49609375 C-7.52497918 59.33461404 -7.48857935 61.17315745 -7.453125 63.01171875 C-7.40285156 64.39230469 -7.40285156 64.39230469 -7.3515625 65.80078125 C-7.2526402 72.62641968 -7.2526402 72.62641968 -9.53125 75.83984375 C-14.41659454 79.03816284 -19.45338833 78.44541825 -25.078125 78.44921875 C-26.02429688 78.46146484 -26.97046875 78.47371094 -27.9453125 78.48632812 C-36.96130083 78.50532248 -36.96130083 78.50532248 -40.703125 76.26171875 C-42.72250674 73.23264614 -42.96701576 72.52284271 -43.07299805 69.10083008 C-43.10189621 68.26598587 -43.13079437 67.43114166 -43.16056824 66.57099915 C-43.23664232 62.74841006 -43.31012255 58.92646191 -43.34838867 55.10327148 C-43.37642662 53.09248089 -43.42411508 51.08186334 -43.49194336 49.07202148 C-44.04813113 32.53733414 -44.04813113 32.53733414 -41.00024414 27.38061523 C-38.69019086 25.28863058 -36.40481895 23.80724699 -33.703125 22.26171875 C-32.05547175 21.00716793 -30.42136671 19.73463859 -28.80078125 18.4453125 C-27.12550779 17.19244262 -25.44710423 15.94374746 -23.765625 14.69921875 C-22.93611328 14.07853516 -22.10660156 13.45785156 -21.25195312 12.81835938 C-19.58522633 11.57640833 -17.91158304 10.34368227 -16.23095703 9.12060547 C-14.49603458 7.84479906 -12.78424912 6.53710475 -11.09326172 5.20361328 C-4.70784833 0.33272768 -4.70784833 0.33272768 0 0 Z " fill="#FFFFFF" transform="translate(75.703125,50.73828125)"/>
<path d="M0 0 C6.78450609 5.55311231 6.78450609 5.55311231 7.4375 9.9375 C7.293125 10.618125 7.14875 11.29875 7 12 C4.75390625 12.75390625 4.75390625 12.75390625 2 13 C-0.03515625 11.33984375 -0.03515625 11.33984375 -2.0625 8.9375 C-10.45882827 -0.03162271 -21.30226491 -3.88559989 -33.375 -4.3125 C-43.59269877 -4.08448999 -54.9639509 -0.85131364 -62.44921875 6.359375 C-63.96686063 7.97484834 -65.45225759 9.62158391 -66.89453125 11.3046875 C-69 13 -69 13 -71.76171875 12.7578125 C-72.50035156 12.50773437 -73.23898438 12.25765625 -74 12 C-74.26326005 9.07376327 -74.32760868 7.49141302 -72.671875 5.0078125 C-52.48476347 -14.76899189 -22.68253863 -17.20122564 0 0 Z " fill="#FFFFFF" transform="translate(107,26)"/>
<path d="M0 0 C3.66513424 3.01355482 7.40425336 6.18077973 9.8125 10.3125 C9.50390625 13.06640625 9.50390625 13.06640625 8.8125 15.3125 C6.5625 15.125 6.5625 15.125 3.8125 14.3125 C2.44176214 12.67645804 1.11194744 11.00571939 -0.1875 9.3125 C-7.50245848 3.74677072 -14.16652244 2.47959724 -23.1875 3.3125 C-30.74533126 5.06152514 -35.56852808 9.15387078 -40.1875 15.3125 C-41.8375 14.9825 -43.4875 14.6525 -45.1875 14.3125 C-45.1875 9.73084785 -43.7261984 7.40707331 -40.6875 4.1875 C-29.19204562 -6.60625698 -13.58412495 -7.19159556 0 0 Z " fill="#FFFFFF" transform="translate(91.1875,36.6875)"/>
</svg>
